<svg xmlns="http://www.w3.org/2000/svg" xmlns:xlink="http://www.w3.org/1999/xlink" viewBox="0 0 738 348" width="738" height="348"><path d="M 157.500,134.000 C 156.500,137.000 156.149,136.915 155.500,140.000" stroke-width="4.749" stroke="black" fill="none" stroke-linecap="round"></path><path d="M 155.500,140.000 C 154.149,146.415 154.676,146.533 153.500,153.000" stroke-width="3.449" stroke="black" fill="none" stroke-linecap="round"></path><path d="M 153.500,153.000 C 152.676,157.533 152.404,157.480 151.500,162.000" stroke-width="3.585" stroke="black" fill="none" stroke-linecap="round"></path><path d="M 151.500,162.000 C 149.904,169.980 149.796,169.967 148.500,178.000" stroke-width="3.055" stroke="black" fill="none" stroke-linecap="round"></path><path d="M 148.500,178.000 C 147.296,185.467 147.570,185.510 146.500,193.000" stroke-width="2.999" stroke="black" fill="none" stroke-linecap="round"></path><path d="M 146.500,193.000 C 145.570,199.510 145.581,199.513 144.500,206.000" stroke-width="3.118" stroke="black" fill="none" stroke-linecap="round"></path><path d="M 144.500,206.000 C 143.081,214.513 142.958,214.493 141.500,223.000" stroke-width="2.817" stroke="black" fill="none" stroke-linecap="round"></path><path d="M 141.500,223.000 C 139.958,231.993 139.887,231.984 138.500,241.000" stroke-width="2.800" stroke="black" fill="none" stroke-linecap="round"></path><path d="M 111.500,182.000 C 114.000,178.000 113.886,177.922 116.500,174.000" stroke-width="5.206" stroke="black" fill="none" stroke-linecap="round"></path><path d="M 116.500,174.000 C 117.886,171.922 117.797,171.824 119.500,170.000" stroke-width="4.616" stroke="black" fill="none" stroke-linecap="round"></path><path d="M 119.500,170.000 C 124.797,164.324 124.659,164.111 130.500,159.000" stroke-width="3.221" stroke="black" fill="none" stroke-linecap="round"></path><path d="M 130.500,159.000 C 136.659,153.611 137.000,154.000 143.500,149.000" stroke-width="2.962" stroke="black" fill="none" stroke-linecap="round"></path><path d="M 143.500,149.000 C 150.000,144.000 149.986,143.981 156.500,139.000" stroke-width="2.892" stroke="black" fill="none" stroke-linecap="round"></path><path d="M 156.500,139.000 C 158.486,137.481 158.422,137.386 160.500,136.000" stroke-width="3.777" stroke="black" fill="none" stroke-linecap="round"></path><path d="M 160.500,136.000 C 164.422,133.386 164.483,131.618 168.500,131.000" stroke-width="3.664" stroke="black" fill="none" stroke-linecap="round"></path><path d="M 168.500,131.000 C 170.983,130.618 172.967,131.466 173.500,134.000" stroke-width="4.598" stroke="black" fill="none" stroke-linecap="round"></path><path d="M 173.500,134.000 C 174.967,140.966 173.623,142.140 172.500,150.000" stroke-width="3.998" stroke="black" fill="none" stroke-linecap="round"></path><path d="M 172.500,150.000 C 172.123,152.640 171.536,152.515 170.500,155.000" stroke-width="4.186" stroke="black" fill="none" stroke-linecap="round"></path><path d="M 170.500,155.000 C 169.036,158.515 169.378,158.713 167.500,162.000" stroke-width="3.970" stroke="black" fill="none" stroke-linecap="round"></path><path d="M 167.500,162.000 C 165.378,165.713 165.215,165.682 162.500,169.000" stroke-width="3.747" stroke="black" fill="none" stroke-linecap="round"></path><path d="M 162.500,169.000 C 160.715,171.182 160.611,171.124 158.500,173.000" stroke-width="4.066" stroke="black" fill="none" stroke-linecap="round"></path><path d="M 158.500,173.000 C 156.111,175.124 152.844,176.563 153.500,177.000" stroke-width="4.080" stroke="black" fill="none" stroke-linecap="round"></path><path d="M 153.500,177.000 C 154.344,177.563 157.568,176.210 161.500,175.000" stroke-width="4.941" stroke="black" fill="none" stroke-linecap="round"></path><path d="M 161.500,175.000 C 164.068,174.210 164.750,172.250 166.500,173.000" stroke-width="4.881" stroke="black" fill="none" stroke-linecap="round"></path><path d="M 166.500,173.000 C 168.250,173.750 168.065,175.391 168.500,178.000" stroke-width="5.172" stroke="black" fill="none" stroke-linecap="round"></path><path d="M 168.500,178.000 C 169.065,181.391 169.485,181.716 168.500,185.000" stroke-width="4.221" stroke="black" fill="none" stroke-linecap="round"></path><path d="M 168.500,185.000 C 166.485,191.716 165.955,191.781 162.500,198.000" stroke-width="4.058" stroke="black" fill="none" stroke-linecap="round"></path><path d="M 162.500,198.000 C 160.955,200.781 160.634,200.615 158.500,203.000" stroke-width="4.121" stroke="black" fill="none" stroke-linecap="round"></path><path d="M 158.500,203.000 C 152.134,210.115 152.078,210.075 145.500,217.000" stroke-width="2.892" stroke="black" fill="none" stroke-linecap="round"></path><path d="M 145.500,217.000 C 142.578,220.075 142.579,220.083 139.500,223.000" stroke-width="3.486" stroke="black" fill="none" stroke-linecap="round"></path><path d="M 139.500,223.000 C 133.079,229.083 133.325,229.394 126.500,235.000" stroke-width="2.873" stroke="black" fill="none" stroke-linecap="round"></path><path d="M 126.500,235.000 C 119.325,240.894 119.022,240.530 111.500,246.000" stroke-width="2.739" stroke="black" fill="none" stroke-linecap="round"></path><path d="M 111.500,246.000 C 108.022,248.530 108.133,248.706 104.500,251.000" stroke-width="3.368" stroke="black" fill="none" stroke-linecap="round"></path><path d="M 104.500,251.000 C 98.633,254.706 98.404,254.345 92.500,258.000" stroke-width="3.110" stroke="black" fill="none" stroke-linecap="round"></path><path d="M 92.500,258.000 C 87.904,260.845 88.129,261.223 83.500,264.000" stroke-width="3.332" stroke="black" fill="none" stroke-linecap="round"></path><path d="M 170.500,209.000 C 172.500,207.000 172.422,206.918 174.500,205.000" stroke-width="4.611" stroke="black" fill="none" stroke-linecap="round"></path><path d="M 174.500,205.000 C 178.922,200.918 178.985,200.983 183.500,197.000" stroke-width="4.281" stroke="black" fill="none" stroke-linecap="round"></path><path d="M 183.500,197.000 C 187.485,193.483 187.756,193.744 191.500,190.000" stroke-width="4.284" stroke="black" fill="none" stroke-linecap="round"></path><path d="M 191.500,190.000 C 193.756,187.744 193.580,187.560 195.500,185.000" stroke-width="4.189" stroke="black" fill="none" stroke-linecap="round"></path><path d="M 195.500,185.000 C 198.080,181.560 198.253,181.652 200.500,178.000" stroke-width="3.803" stroke="black" fill="none" stroke-linecap="round"></path><path d="M 200.500,178.000 C 202.253,175.152 205.116,171.706 203.500,172.000" stroke-width="4.402" stroke="black" fill="none" stroke-linecap="round"></path><path d="M 203.500,172.000 C 199.616,172.706 196.052,175.414 189.500,180.000" stroke-width="4.820" stroke="black" fill="none" stroke-linecap="round"></path><path d="M 189.500,180.000 C 186.052,182.414 186.584,183.088 183.500,186.000" stroke-width="4.076" stroke="black" fill="none" stroke-linecap="round"></path><path d="M 183.500,186.000 C 177.584,191.588 177.408,191.403 171.500,197.000" stroke-width="3.080" stroke="black" fill="none" stroke-linecap="round"></path><path d="M 171.500,197.000 C 167.908,200.403 167.647,200.224 164.500,204.000" stroke-width="3.398" stroke="black" fill="none" stroke-linecap="round"></path><path d="M 164.500,204.000 C 162.647,206.224 160.591,207.864 161.500,209.000" stroke-width="4.248" stroke="black" fill="none" stroke-linecap="round"></path><path d="M 161.500,209.000 C 162.591,210.364 165.199,209.917 168.500,209.000" stroke-width="4.881" stroke="black" fill="none" stroke-linecap="round"></path><path d="M 168.500,209.000 C 174.199,207.417 173.920,206.297 179.500,204.000" stroke-width="4.294" stroke="black" fill="none" stroke-linecap="round"></path><path d="M 179.500,204.000 C 182.420,202.797 182.588,203.213 185.500,202.000" stroke-width="4.156" stroke="black" fill="none" stroke-linecap="round"></path><path d="M 185.500,202.000 C 188.588,200.713 188.456,200.405 191.500,199.000" stroke-width="4.069" stroke="black" fill="none" stroke-linecap="round"></path><path d="M 191.500,199.000 C 194.956,197.405 195.051,197.610 198.500,196.000" stroke-width="3.885" stroke="black" fill="none" stroke-linecap="round"></path><path d="M 198.500,196.000 C 202.551,194.110 202.443,193.873 206.500,192.000" stroke-width="4.283" stroke="black" fill="none" stroke-linecap="round"></path><path d="M 206.500,192.000 C 208.943,190.873 210.750,189.250 211.500,190.000" stroke-width="4.816" stroke="black" fill="none" stroke-linecap="round"></path><path d="M 211.500,190.000 C 212.250,190.750 208.450,195.175 209.500,195.000" stroke-width="5.256" stroke="black" fill="none" stroke-linecap="round"></path><path d="M 209.500,195.000 C 211.450,194.675 213.692,192.222 217.500,189.000" stroke-width="5.191" stroke="black" fill="none" stroke-linecap="round"></path><path d="M 217.500,189.000 C 220.192,186.722 221.327,183.296 222.500,184.000" stroke-width="4.768" stroke="black" fill="none" stroke-linecap="round"></path><path d="M 222.500,184.000 C 223.827,184.796 220.973,189.862 222.500,192.000" stroke-width="5.082" stroke="black" fill="none" stroke-linecap="round"></path><path d="M 222.500,192.000 C 223.473,193.362 225.228,192.010 227.500,191.000" stroke-width="5.339" stroke="black" fill="none" stroke-linecap="round"></path><path d="M 227.500,191.000 C 229.728,190.010 229.500,189.500 231.500,188.000" stroke-width="4.603" stroke="black" fill="none" stroke-linecap="round"></path><path d="M 231.500,188.000 C 233.500,186.500 234.279,184.186 235.500,185.000" stroke-width="4.982" stroke="black" fill="none" stroke-linecap="round"></path><path d="M 235.500,185.000 C 237.279,186.186 237.228,188.459 237.500,192.000" stroke-width="5.201" stroke="black" fill="none" stroke-linecap="round"></path><path d="M 237.500,192.000 C 237.728,194.959 237.044,195.008 236.500,198.000" stroke-width="4.358" stroke="black" fill="none" stroke-linecap="round"></path><path d="M 236.500,198.000 C 236.044,200.508 236.433,200.667 235.500,203.000" stroke-width="4.336" stroke="black" fill="none" stroke-linecap="round"></path><path d="M 235.500,203.000 C 234.433,205.667 234.000,205.500 232.500,208.000" stroke-width="4.232" stroke="black" fill="none" stroke-linecap="round"></path><path d="M 232.500,208.000 C 229.500,213.000 229.590,213.057 226.500,218.000" stroke-width="3.562" stroke="black" fill="none" stroke-linecap="round"></path><path d="M 226.500,218.000 C 224.590,221.057 224.536,221.024 222.500,224.000" stroke-width="3.777" stroke="black" fill="none" stroke-linecap="round"></path><path d="M 222.500,224.000 C 218.036,230.524 218.094,230.568 213.500,237.000" stroke-width="3.193" stroke="black" fill="none" stroke-linecap="round"></path><path d="M 213.500,237.000 C 210.594,241.068 208.093,246.384 207.500,245.000" stroke-width="3.478" stroke="black" fill="none" stroke-linecap="round"></path><path d="M 207.500,245.000 C 206.593,242.884 209.000,237.500 210.500,230.000" stroke-width="4.424" stroke="black" fill="none" stroke-linecap="round"></path><path d="M 210.500,230.000 C 211.000,227.500 210.696,227.412 211.500,225.000" stroke-width="4.356" stroke="black" fill="none" stroke-linecap="round"></path><path d="M 211.500,225.000 C 213.696,218.412 213.650,218.334 216.500,212.000" stroke-width="3.315" stroke="black" fill="none" stroke-linecap="round"></path><path d="M 216.500,212.000 C 218.150,208.334 217.863,207.989 220.500,205.000" stroke-width="3.602" stroke="black" fill="none" stroke-linecap="round"></path><path d="M 220.500,205.000 C 225.363,199.489 225.531,199.341 231.500,195.000" stroke-width="3.159" stroke="black" fill="none" stroke-linecap="round"></path><path d="M 231.500,195.000 C 236.531,191.341 236.772,191.455 242.500,189.000" stroke-width="3.268" stroke="black" fill="none" stroke-linecap="round"></path><path d="M 242.500,189.000 C 247.272,186.955 247.551,187.650 252.500,186.000" stroke-width="3.362" stroke="black" fill="none" stroke-linecap="round"></path><path d="M 252.500,186.000 C 256.551,184.650 256.478,184.437 260.500,183.000" stroke-width="4.050" stroke="black" fill="none" stroke-linecap="round"></path><path d="M 260.500,183.000 C 263.478,181.937 263.588,182.213 266.500,181.000" stroke-width="4.525" stroke="black" fill="none" stroke-linecap="round"></path><path d="M 266.500,181.000 C 269.588,179.713 269.558,179.605 272.500,178.000" stroke-width="4.917" stroke="black" fill="none" stroke-linecap="round"></path><path d="M 272.500,178.000 C 275.058,176.605 275.117,176.668 277.500,175.000" stroke-width="5.172" stroke="black" fill="none" stroke-linecap="round"></path><path d="M 277.500,175.000 C 280.117,173.168 280.111,173.124 282.500,171.000" stroke-width="4.873" stroke="black" fill="none" stroke-linecap="round"></path><path d="M 282.500,171.000 C 284.611,169.124 284.377,168.858 286.500,167.000" stroke-width="5.093" stroke="black" fill="none" stroke-linecap="round"></path><path d="M 286.500,167.000 C 288.377,165.358 288.500,165.500 290.500,164.000" stroke-width="4.945" stroke="black" fill="none" stroke-linecap="round"></path><path d="M 290.500,164.000 C 292.500,162.500 294.673,160.134 294.500,161.000" stroke-width="5.144" stroke="black" fill="none" stroke-linecap="round"></path><path d="M 294.500,161.000 C 294.173,162.634 292.114,165.078 289.500,169.000" stroke-width="5.296" stroke="black" fill="none" stroke-linecap="round"></path><path d="M 293.500,163.000 C 295.500,165.000 295.899,164.713 297.500,167.000" stroke-width="5.315" stroke="black" fill="none" stroke-linecap="round"></path><path d="M 297.500,167.000 C 299.399,169.713 299.364,169.875 300.500,173.000" stroke-width="5.070" stroke="black" fill="none" stroke-linecap="round"></path><path d="M 300.500,173.000 C 301.364,175.375 300.567,178.000 301.500,178.000" stroke-width="5.087" stroke="black" fill="none" stroke-linecap="round"></path><path d="M 301.500,178.000 C 302.567,178.000 303.433,175.667 304.500,173.000" stroke-width="5.264" stroke="black" fill="none" stroke-linecap="round"></path><path d="M 304.500,173.000 C 305.433,170.667 304.000,169.000 305.500,168.000" stroke-width="5.151" stroke="black" fill="none" stroke-linecap="round"></path><path d="M 305.500,168.000 C 307.000,167.000 308.000,169.000 310.500,169.000" stroke-width="5.380" stroke="black" fill="none" stroke-linecap="round"></path><path d="M 310.500,169.000 C 313.000,169.000 312.975,168.252 315.500,168.000" stroke-width="5.280" stroke="black" fill="none" stroke-linecap="round"></path><path d="M 315.500,168.000 C 317.975,167.752 321.331,167.834 320.500,168.000" stroke-width="5.436" stroke="black" fill="none" stroke-linecap="round"></path><circle r="1.5" cx="294.5" cy="146" fill="black"></circle><path d="M 297.500,146.000 C 295.000,146.500 295.000,146.500 292.500,147.000" stroke-width="5.153" stroke="black" fill="none" stroke-linecap="round"></path><path d="M 292.500,147.000 C 290.000,147.500 290.026,147.670 287.500,148.000" stroke-width="4.589" stroke="black" fill="none" stroke-linecap="round"></path><path d="M 287.500,148.000 C 278.526,149.170 278.470,148.777 269.500,150.000" stroke-width="3.024" stroke="black" fill="none" stroke-linecap="round"></path><path d="M 269.500,150.000 C 256.470,151.777 240.152,154.372 243.500,154.000" stroke-width="2.335" stroke="black" fill="none" stroke-linecap="round"></path><path d="M 241.500,159.000 C 238.500,159.500 238.442,159.265 235.500,160.000" stroke-width="4.999" stroke="black" fill="none" stroke-linecap="round"></path><path d="M 235.500,160.000 C 232.442,160.765 232.565,161.234 229.500,162.000" stroke-width="4.280" stroke="black" fill="none" stroke-linecap="round"></path><path d="M 229.500,162.000 C 220.565,164.234 210.219,166.427 211.500,166.000" stroke-width="3.035" stroke="black" fill="none" stroke-linecap="round"></path><path d="M 325.500,152.000 C 323.500,150.500 323.116,150.847 321.500,149.000" stroke-width="5.553" stroke="black" fill="none" stroke-linecap="round"></path><path d="M 321.500,149.000 C 319.616,146.847 319.308,146.692 318.500,144.000" stroke-width="5.432" stroke="black" fill="none" stroke-linecap="round"></path><path d="M 318.500,144.000 C 317.808,141.692 318.252,141.475 318.500,139.000" stroke-width="5.350" stroke="black" fill="none" stroke-linecap="round"></path><path d="M 318.500,139.000 C 318.752,136.475 318.490,136.272 319.500,134.000" stroke-width="5.169" stroke="black" fill="none" stroke-linecap="round"></path><path d="M 319.500,134.000 C 320.490,131.772 320.965,131.973 322.500,130.000" stroke-width="5.137" stroke="black" fill="none" stroke-linecap="round"></path><path d="M 322.500,130.000 C 324.465,127.473 324.254,127.246 326.500,125.000" stroke-width="5.031" stroke="black" fill="none" stroke-linecap="round"></path><path d="M 326.500,125.000 C 328.254,123.246 328.453,123.433 330.500,122.000" stroke-width="5.088" stroke="black" fill="none" stroke-linecap="round"></path><path d="M 330.500,122.000 C 333.453,119.933 333.843,120.362 336.500,118.000" stroke-width="4.966" stroke="black" fill="none" stroke-linecap="round"></path><path d="M 336.500,118.000 C 338.343,116.362 337.858,115.877 339.500,114.000" stroke-width="4.909" stroke="black" fill="none" stroke-linecap="round"></path><path d="M 339.500,114.000 C 341.358,111.877 342.008,112.344 343.500,110.000" stroke-width="4.834" stroke="black" fill="none" stroke-linecap="round"></path><path d="M 343.500,110.000 C 345.508,106.844 344.800,106.400 346.500,103.000" stroke-width="4.646" stroke="black" fill="none" stroke-linecap="round"></path><path d="M 346.500,103.000 C 348.300,99.400 348.590,99.548 350.500,96.000" stroke-width="4.558" stroke="black" fill="none" stroke-linecap="round"></path><path d="M 350.500,96.000 C 352.090,93.048 352.095,93.044 353.500,90.000" stroke-width="4.125" stroke="black" fill="none" stroke-linecap="round"></path><path d="M 353.500,90.000 C 355.095,86.544 355.120,86.548 356.500,83.000" stroke-width="3.900" stroke="black" fill="none" stroke-linecap="round"></path><path d="M 356.500,83.000 C 358.620,77.548 358.650,77.550 360.500,72.000" stroke-width="4.073" stroke="black" fill="none" stroke-linecap="round"></path><path d="M 360.500,72.000 C 362.150,67.050 361.851,66.948 363.500,62.000" stroke-width="4.232" stroke="black" fill="none" stroke-linecap="round"></path><path d="M 363.500,62.000 C 364.351,59.448 365.881,55.730 365.500,57.000" stroke-width="4.300" stroke="black" fill="none" stroke-linecap="round"></path><path d="M 365.500,55.000 C 365.500,57.500 365.252,57.525 365.500,60.000" stroke-width="5.506" stroke="black" fill="none" stroke-linecap="round"></path><path d="M 365.500,60.000 C 365.752,62.525 366.248,62.475 366.500,65.000" stroke-width="5.420" stroke="black" fill="none" stroke-linecap="round"></path><path d="M 366.500,65.000 C 366.748,67.475 366.500,67.500 366.500,70.000" stroke-width="5.426" stroke="black" fill="none" stroke-linecap="round"></path><path d="M 366.500,70.000 C 366.500,72.500 366.707,72.515 366.500,75.000" stroke-width="5.364" stroke="black" fill="none" stroke-linecap="round"></path><path d="M 366.500,75.000 C 366.207,78.515 366.081,78.514 365.500,82.000" stroke-width="5.060" stroke="black" fill="none" stroke-linecap="round"></path><path d="M 365.500,82.000 C 365.081,84.514 364.919,84.486 364.500,87.000" stroke-width="4.524" stroke="black" fill="none" stroke-linecap="round"></path><path d="M 364.500,87.000 C 363.919,90.486 363.967,90.496 363.500,94.000" stroke-width="4.173" stroke="black" fill="none" stroke-linecap="round"></path><path d="M 363.500,94.000 C 362.967,97.996 363.098,98.014 362.500,102.000" stroke-width="3.916" stroke="black" fill="none" stroke-linecap="round"></path><path d="M 362.500,102.000 C 361.598,108.014 361.621,108.022 360.500,114.000" stroke-width="3.447" stroke="black" fill="none" stroke-linecap="round"></path><path d="M 360.500,114.000 C 358.621,124.022 358.324,123.967 356.500,134.000" stroke-width="2.702" stroke="black" fill="none" stroke-linecap="round"></path><path d="M 356.500,134.000 C 353.324,151.467 353.528,151.505 350.500,169.000" stroke-width="2.018" stroke="black" fill="none" stroke-linecap="round"></path><path d="M 350.500,169.000 C 349.028,177.505 349.017,177.503 347.500,186.000" stroke-width="2.455" stroke="black" fill="none" stroke-linecap="round"></path><path d="M 347.500,186.000 C 344.017,205.503 344.000,205.500 340.500,225.000" stroke-width="1.863" stroke="black" fill="none" stroke-linecap="round"></path><path d="M 340.500,225.000 C 337.000,244.500 337.578,244.632 333.500,264.000" stroke-width="1.685" stroke="black" fill="none" stroke-linecap="round"></path><path d="M 333.500,264.000 C 331.578,273.132 327.650,286.735 328.500,282.000" stroke-width="2.276" stroke="black" fill="none" stroke-linecap="round"></path><path d="M 332.500,183.000 C 335.500,181.500 335.728,181.848 338.500,180.000" stroke-width="5.159" stroke="black" fill="none" stroke-linecap="round"></path><path d="M 338.500,180.000 C 341.728,177.848 341.478,177.473 344.500,175.000" stroke-width="4.968" stroke="black" fill="none" stroke-linecap="round"></path><path d="M 344.500,175.000 C 346.978,172.973 347.041,173.049 349.500,171.000" stroke-width="4.802" stroke="black" fill="none" stroke-linecap="round"></path><path d="M 349.500,171.000 C 353.041,168.049 353.124,168.134 356.500,165.000" stroke-width="4.511" stroke="black" fill="none" stroke-linecap="round"></path><path d="M 356.500,165.000 C 360.124,161.634 360.146,161.633 363.500,158.000" stroke-width="4.402" stroke="black" fill="none" stroke-linecap="round"></path><path d="M 363.500,158.000 C 366.146,155.133 366.061,155.049 368.500,152.000" stroke-width="3.947" stroke="black" fill="none" stroke-linecap="round"></path><path d="M 368.500,152.000 C 372.061,147.549 372.192,147.631 375.500,143.000" stroke-width="4.150" stroke="black" fill="none" stroke-linecap="round"></path><path d="M 375.500,143.000 C 377.192,140.631 376.832,140.383 378.500,138.000" stroke-width="4.177" stroke="black" fill="none" stroke-linecap="round"></path><path d="M 378.500,138.000 C 380.332,135.383 380.608,135.581 382.500,133.000" stroke-width="4.064" stroke="black" fill="none" stroke-linecap="round"></path><path d="M 382.500,133.000 C 386.108,128.081 386.116,128.075 389.500,123.000" stroke-width="4.116" stroke="black" fill="none" stroke-linecap="round"></path><path d="M 389.500,123.000 C 391.116,120.575 392.240,118.000 392.500,118.000" stroke-width="4.545" stroke="black" fill="none" stroke-linecap="round"></path><path d="M 392.500,118.000 C 392.740,118.000 391.420,120.471 390.500,123.000" stroke-width="5.208" stroke="black" fill="none" stroke-linecap="round"></path><path d="M 390.500,123.000 C 389.420,125.971 389.801,126.138 388.500,129.000" stroke-width="4.857" stroke="black" fill="none" stroke-linecap="round"></path><path d="M 388.500,129.000 C 387.301,131.638 386.404,131.288 385.500,134.000" stroke-width="4.818" stroke="black" fill="none" stroke-linecap="round"></path><path d="M 385.500,134.000 C 384.404,137.288 385.081,137.514 384.500,141.000" stroke-width="4.687" stroke="black" fill="none" stroke-linecap="round"></path><path d="M 384.500,141.000 C 384.081,143.514 382.743,145.495 383.500,146.000" stroke-width="4.828" stroke="black" fill="none" stroke-linecap="round"></path><path d="M 383.500,146.000 C 384.243,146.495 385.884,144.847 387.500,143.000" stroke-width="5.247" stroke="black" fill="none" stroke-linecap="round"></path><path d="M 387.500,143.000 C 389.384,140.847 389.200,140.599 390.500,138.000" stroke-width="4.911" stroke="black" fill="none" stroke-linecap="round"></path><path d="M 390.500,138.000 C 391.700,135.599 390.901,133.228 392.500,133.000" stroke-width="5.272" stroke="black" fill="none" stroke-linecap="round"></path><path d="M 392.500,133.000 C 394.401,132.728 395.254,134.754 397.500,137.000" stroke-width="5.357" stroke="black" fill="none" stroke-linecap="round"></path><path d="M 397.500,137.000 C 399.254,138.754 398.746,139.246 400.500,141.000" stroke-width="4.559" stroke="black" fill="none" stroke-linecap="round"></path><path d="M 400.500,141.000 C 402.746,143.246 402.784,144.457 405.500,145.000" stroke-width="4.857" stroke="black" fill="none" stroke-linecap="round"></path><path d="M 405.500,145.000 C 407.784,145.457 408.305,144.463 410.500,143.000" stroke-width="4.842" stroke="black" fill="none" stroke-linecap="round"></path><path d="M 410.500,143.000 C 412.805,141.463 412.500,141.000 414.500,139.000" stroke-width="4.799" stroke="black" fill="none" stroke-linecap="round"></path><path d="M 414.500,139.000 C 416.500,137.000 416.111,136.062 418.500,135.000" stroke-width="4.801" stroke="black" fill="none" stroke-linecap="round"></path><path d="M 418.500,135.000 C 420.611,134.062 421.250,134.250 423.500,135.000" stroke-width="5.286" stroke="black" fill="none" stroke-linecap="round"></path><path d="M 423.500,135.000 C 425.750,135.750 425.272,137.505 427.500,138.000" stroke-width="5.264" stroke="black" fill="none" stroke-linecap="round"></path><path d="M 427.500,138.000 C 429.772,138.505 430.634,138.400 432.500,137.000" stroke-width="4.969" stroke="black" fill="none" stroke-linecap="round"></path><path d="M 432.500,137.000 C 434.634,135.400 433.500,134.000 435.500,132.000" stroke-width="4.850" stroke="black" fill="none" stroke-linecap="round"></path><path d="M 435.500,132.000 C 437.500,130.000 438.900,128.467 440.500,129.000" stroke-width="4.973" stroke="black" fill="none" stroke-linecap="round"></path><path d="M 440.500,129.000 C 441.900,129.467 441.500,131.492 441.500,134.000" stroke-width="5.241" stroke="black" fill="none" stroke-linecap="round"></path><path d="M 441.500,134.000 C 441.500,136.992 439.575,139.769 440.500,140.000" stroke-width="5.282" stroke="black" fill="none" stroke-linecap="round"></path><path d="M 440.500,140.000 C 441.575,140.269 444.144,138.099 445.500,135.000" stroke-width="5.384" stroke="black" fill="none" stroke-linecap="round"></path><path d="M 445.500,135.000 C 447.644,130.099 446.404,129.481 447.500,124.000" stroke-width="4.523" stroke="black" fill="none" stroke-linecap="round"></path><path d="M 447.500,124.000 C 448.904,116.981 449.429,117.068 450.500,110.000" stroke-width="3.383" stroke="black" fill="none" stroke-linecap="round"></path><path d="M 450.500,110.000 C 451.929,100.568 451.820,100.517 452.500,91.000" stroke-width="2.765" stroke="black" fill="none" stroke-linecap="round"></path><path d="M 452.500,91.000 C 452.820,86.517 452.339,86.496 452.500,82.000" stroke-width="3.301" stroke="black" fill="none" stroke-linecap="round"></path><path d="M 452.500,82.000 C 452.839,72.496 452.523,72.440 453.500,63.000" stroke-width="2.820" stroke="black" fill="none" stroke-linecap="round"></path><path d="M 453.500,63.000 C 454.023,57.940 453.974,57.833 455.500,53.000" stroke-width="3.274" stroke="black" fill="none" stroke-linecap="round"></path><path d="M 455.500,53.000 C 456.974,48.333 458.045,44.582 459.500,44.000" stroke-width="3.417" stroke="black" fill="none" stroke-linecap="round"></path><path d="M 459.500,44.000 C 460.545,43.582 460.280,47.480 460.500,51.000" stroke-width="4.560" stroke="black" fill="none" stroke-linecap="round"></path><path d="M 460.500,51.000 C 460.780,55.480 460.500,55.500 460.500,60.000" stroke-width="4.440" stroke="black" fill="none" stroke-linecap="round"></path><path d="M 460.500,60.000 C 460.500,64.500 460.220,64.520 460.500,69.000" stroke-width="3.878" stroke="black" fill="none" stroke-linecap="round"></path><path d="M 460.500,69.000 C 460.720,72.520 461.148,72.484 461.500,76.000" stroke-width="3.944" stroke="black" fill="none" stroke-linecap="round"></path><path d="M 461.500,76.000 C 462.148,82.484 462.018,82.499 462.500,89.000" stroke-width="3.379" stroke="black" fill="none" stroke-linecap="round"></path><path d="M 462.500,89.000 C 463.018,95.999 462.917,96.007 463.500,103.000" stroke-width="3.223" stroke="black" fill="none" stroke-linecap="round"></path><path d="M 463.500,103.000 C 463.917,108.007 464.000,108.000 464.500,113.000" stroke-width="3.382" stroke="black" fill="none" stroke-linecap="round"></path><path d="M 464.500,113.000 C 465.000,118.000 463.547,119.093 465.500,123.000" stroke-width="4.001" stroke="black" fill="none" stroke-linecap="round"></path><path d="M 465.500,123.000 C 466.547,125.093 467.971,125.000 470.500,125.000" stroke-width="4.859" stroke="black" fill="none" stroke-linecap="round"></path><path d="M 470.500,125.000 C 473.471,125.000 473.529,124.080 476.500,123.000" stroke-width="5.207" stroke="black" fill="none" stroke-linecap="round"></path><path d="M 476.500,123.000 C 479.029,122.080 479.149,122.283 481.500,121.000" stroke-width="5.207" stroke="black" fill="none" stroke-linecap="round"></path><path d="M 481.500,121.000 C 484.649,119.283 484.843,119.362 487.500,117.000" stroke-width="5.000" stroke="black" fill="none" stroke-linecap="round"></path><path d="M 487.500,117.000 C 489.343,115.362 490.500,115.000 490.500,113.000" stroke-width="5.215" stroke="black" fill="none" stroke-linecap="round"></path><path d="M 490.500,113.000 C 490.500,111.000 488.781,111.135 487.500,109.000" stroke-width="5.292" stroke="black" fill="none" stroke-linecap="round"></path><path d="M 487.500,109.000 C 485.781,106.135 486.219,105.865 484.500,103.000" stroke-width="5.155" stroke="black" fill="none" stroke-linecap="round"></path><path d="M 484.500,103.000 C 483.219,100.865 483.487,100.325 481.500,99.000" stroke-width="5.139" stroke="black" fill="none" stroke-linecap="round"></path><path d="M 481.500,99.000 C 478.987,97.325 478.614,97.406 475.500,97.000" stroke-width="4.855" stroke="black" fill="none" stroke-linecap="round"></path><path d="M 475.500,97.000 C 467.114,95.906 467.007,96.274 458.500,96.000" stroke-width="3.217" stroke="black" fill="none" stroke-linecap="round"></path><path d="M 458.500,96.000 C 451.507,95.774 451.463,95.378 444.500,96.000" stroke-width="3.062" stroke="black" fill="none" stroke-linecap="round"></path><path d="M 444.500,96.000 C 423.463,97.878 423.501,98.505 402.500,101.000" stroke-width="1.942" stroke="black" fill="none" stroke-linecap="round"></path><path d="M 402.500,101.000 C 373.001,104.505 373.012,104.608 343.500,108.000" stroke-width="1.401" stroke="black" fill="none" stroke-linecap="round"></path><path d="M 343.500,108.000 C 329.512,109.608 329.465,109.214 315.500,111.000" stroke-width="1.836" stroke="black" fill="none" stroke-linecap="round"></path><path d="M 315.500,111.000 C 286.465,114.714 286.474,114.821 257.500,119.000" stroke-width="1.396" stroke="black" fill="none" stroke-linecap="round"></path><path d="M 257.500,119.000 C 234.474,122.321 234.200,121.257 211.500,126.000" stroke-width="1.471" stroke="black" fill="none" stroke-linecap="round"></path></svg>